<?xml version="1.0" ?>
<!-- Uploaded to: SVG Repo, www.svgrepo.com, Generator: SVG Repo Mixer Tools -->
<svg width="800px" height="800px" viewBox="0 0 64 64" xmlns="http://www.w3.org/2000/svg">
<g id="a"/>
<g id="b"/>
<g id="c"/>
<g id="d"/>
<g id="e"/>
<g id="f"/>
<g id="g"/>
<g id="h"/>
<g id="i"/>
<g id="j"/>
<g id="k"/>
<g id="l"/>
<g id="m"/>
<g id="n"/>
<g id="o"/>
<g id="p"/>
<g id="q">
<path d="M47.58,16.28c-1.09,0-1.96,.87-1.96,1.96v27.85l11.42-2.6V18.24c0-1.09-.88-1.96-1.96-1.96h-7.5Z" fill="#f0f4f6" fill-rule="evenodd"/>
<path d="M52.5,43.48V25.37c0-1.09-.88-1.96-1.96-1.96h-9.54l-3.68,4.58,2.06,17.92,13.13-2.43Z" fill="#e2eef2" fill-rule="evenodd"/>
<path d="M28.86,5.81c-.93,0-1.68,.75-1.68,1.69V43.48l6.51,2.47,7.32-2.47V7.49c0-.93-.75-1.69-1.69-1.69h-10.45Z" fill="#f0f4f6" fill-rule="evenodd"/>
<path d="M23.05,23.41h10.21c1.09,0,1.96,.87,1.96,1.96v18.11l-13.26,2.35-4.08-12.37,5.17-10.06Z" fill="#e2eef2" fill-rule="evenodd"/>
<path d="M23.05,43.48V18.24c0-1.09-.88-1.96-1.96-1.96H8.92c-1.09,0-1.96,.87-1.96,1.96v25.25l6.6,1.59,9.49-1.59Z" fill="#f0f4f6" fill-rule="evenodd"/>
<path d="M6.96,43.48c-1.09,0-1.96,.87-1.96,1.96v4.65H59v-4.65c0-1.09-.87-1.96-1.96-1.96H6.96Z" fill="#9af6d3" fill-rule="evenodd"/>
<rect fill="#f0bdb0" height="10.06" rx="1.96" ry="1.96" width="54" x="5" y="48.14"/>
<path d="M18.86,19.31c-.55,0-1,.45-1,1s.45,1,1,1h.92c.55,0,1-.45,1-1s-.45-1-1-1h-.92Zm-8.64,0c-.55,0-1,.45-1,1s.45,1,1,1h.92c.55,0,1-.45,1-1s-.45-1-1-1h-.92Z" fill="#e2eef2" fill-rule="evenodd"/>
<path d="M18.86,23.14c-.55,0-1,.45-1,1s.45,1,1,1h.92c.55,0,1-.45,1-1s-.45-1-1-1h-.92Zm-4.32,0c-.55,0-1,.45-1,1s.45,1,1,1h.92c.55,0,1-.45,1-1s-.45-1-1-1h-.92Zm-4.32,0c-.55,0-1,.45-1,1s.45,1,1,1h.92c.55,0,1-.45,1-1s-.45-1-1-1h-.92Z" fill="#e2eef2" fill-rule="evenodd"/>
<path d="M14.54,26.98c-.55,0-1,.45-1,1s.45,1,1,1h.92c.55,0,1-.45,1-1s-.45-1-1-1h-.92Zm-4.32,0c-.55,0-1,.45-1,1s.45,1,1,1h.92c.55,0,1-.45,1-1s-.45-1-1-1h-.92Z" fill="#e2eef2" fill-rule="evenodd"/>
<path d="M18.86,30.82c-.55,0-1,.45-1,1s.45,1,1,1h.92c.55,0,1-.45,1-1s-.45-1-1-1h-.92Zm-4.32,0c-.55,0-1,.45-1,1s.45,1,1,1h.92c.55,0,1-.45,1-1s-.45-1-1-1h-.92Zm-4.32,0c-.55,0-1,.45-1,1s.45,1,1,1h.92c.55,0,1-.45,1-1s-.45-1-1-1h-.92Z" fill="#e2eef2" fill-rule="evenodd"/>
<path d="M18.86,34.65c-.55,0-1,.45-1,1s.45,1,1,1h.92c.55,0,1-.45,1-1s-.45-1-1-1h-.92Zm-4.32,0c-.55,0-1,.45-1,1s.45,1,1,1h.92c.55,0,1-.45,1-1s-.45-1-1-1h-.92Z" fill="#e2eef2" fill-rule="evenodd"/>
<path d="M18.86,38.49c-.55,0-1,.45-1,1s.45,1,1,1h.92c.55,0,1-.45,1-1s-.45-1-1-1h-.92Zm-8.64,0c-.55,0-1,.45-1,1s.45,1,1,1h.92c.55,0,1-.45,1-1s-.45-1-1-1h-.92Z" fill="#e2eef2" fill-rule="evenodd"/>
<path d="M37.19,8.18c-.55,0-1,.45-1,1s.45,1,1,1h.74c.55,0,1-.45,1-1s-.45-1-1-1h-.74Zm-3.47,0c-.55,0-1,.45-1,1s.45,1,1,1h.74c.55,0,1-.45,1-1s-.45-1-1-1h-.74Zm-3.48,0c-.55,0-1,.45-1,1s.45,1,1,1h.74c.55,0,1-.45,1-1s-.45-1-1-1h-.74Z" fill="#e2eef2" fill-rule="evenodd"/>
<path d="M37.19,11.27c-.55,0-1,.45-1,1s.45,1,1,1h.74c.55,0,1-.45,1-1s-.45-1-1-1h-.74Zm-3.47,0c-.55,0-1,.45-1,1s.45,1,1,1h.74c.55,0,1-.45,1-1s-.45-1-1-1h-.74Z" fill="#e2eef2" fill-rule="evenodd"/>
<path d="M33.71,14.35c-.55,0-1,.45-1,1s.45,1,1,1h.74c.55,0,1-.45,1-1s-.45-1-1-1h-.74Zm-3.48,0c-.55,0-1,.45-1,1s.45,1,1,1h.74c.55,0,1-.45,1-1s-.45-1-1-1h-.74Z" fill="#e2eef2" fill-rule="evenodd"/>
<path d="M37.19,17.44c-.55,0-1,.45-1,1s.45,1,1,1h.74c.55,0,1-.45,1-1s-.45-1-1-1h-.74Zm-3.47,0c-.55,0-1,.45-1,1s.45,1,1,1h.74c.55,0,1-.45,1-1s-.45-1-1-1h-.74Zm-3.48,0c-.55,0-1,.45-1,1s.45,1,1,1h.74c.55,0,1-.45,1-1s-.45-1-1-1h-.74Z" fill="#e2eef2" fill-rule="evenodd"/>
<path d="M37.19,20.52c-.55,0-1,.45-1,1s.45,1,1,1h.74c.55,0,1-.45,1-1s-.45-1-1-1h-.74Zm-6.95,0c-.55,0-1,.45-1,1s.45,1,1,1h.74c.55,0,1-.45,1-1s-.45-1-1-1h-.74Z" fill="#e2eef2" fill-rule="evenodd"/>
<path d="M37.19,23.61c-.55,0-1,.45-1,1s.45,1,1,1h.74c.55,0,1-.45,1-1s-.45-1-1-1h-.74Z" fill="#e2eef2" fill-rule="evenodd"/>
<path d="M37.19,26.69c-.55,0-1,.45-1,1s.45,1,1,1h.74c.55,0,1-.45,1-1s-.45-1-1-1h-.74Z" fill="#e2eef2" fill-rule="evenodd"/>
<path d="M37.19,32.86c-.55,0-1,.45-1,1s.45,1,1,1h.74c.55,0,1-.45,1-1s-.45-1-1-1h-.74Z" fill="#e2eef2" fill-rule="evenodd"/>
<path d="M37.19,35.95c-.55,0-1,.45-1,1s.45,1,1,1h.74c.55,0,1-.45,1-1s-.45-1-1-1h-.74Z" fill="#e2eef2" fill-rule="evenodd"/>
<path d="M31.03,26.44c-.55,0-1,.45-1,1s.45,1,1,1h.93c.55,0,1-.45,1-1s-.45-1-1-1h-.93Zm-4.32,0c-.55,0-1,.45-1,1s.45,1,1,1h.92c.55,0,1-.45,1-1s-.45-1-1-1h-.92Z" fill="#d7e5eb" fill-rule="evenodd"/>
<path d="M26.71,30.28c-.55,0-1,.45-1,1s.45,1,1,1h.92c.55,0,1-.45,1-1s-.45-1-1-1h-.92Z" fill="#d7e5eb" fill-rule="evenodd"/>
<path d="M31.03,34.11c-.55,0-1,.45-1,1s.45,1,1,1h.93c.55,0,1-.45,1-1s-.45-1-1-1h-.93Zm-4.32,0c-.55,0-1,.45-1,1s.45,1,1,1h.92c.55,0,1-.45,1-1s-.45-1-1-1h-.92Z" fill="#d7e5eb" fill-rule="evenodd"/>
<path d="M31.03,37.95c-.55,0-1,.45-1,1s.45,1,1,1h.93c.55,0,1-.45,1-1s-.45-1-1-1h-.93Z" fill="#d7e5eb" fill-rule="evenodd"/>
<path d="M48.13,25.26c-.55,0-1,.45-1,1s.45,1,1,1h.92c.55,0,1-.45,1-1s-.45-1-1-1h-.92Z" fill="#d7e5eb" fill-rule="evenodd"/>
<path d="M48.13,29.1c-.55,0-1,.45-1,1s.45,1,1,1h.92c.55,0,1-.45,1-1s-.45-1-1-1h-.92Zm-4.32,0c-.55,0-1,.45-1,1s.45,1,1,1h.92c.55,0,1-.45,1-1s-.45-1-1-1h-.92Z" fill="#d7e5eb" fill-rule="evenodd"/>
<path d="M48.13,32.94c-.55,0-1,.45-1,1s.45,1,1,1h.92c.55,0,1-.45,1-1s-.45-1-1-1h-.92Zm-4.32,0c-.55,0-1,.45-1,1s.45,1,1,1h.92c.55,0,1-.45,1-1s-.45-1-1-1h-.92Z" fill="#d7e5eb" fill-rule="evenodd"/>
<path d="M48.13,36.77c-.55,0-1,.45-1,1s.45,1,1,1h.92c.55,0,1-.45,1-1s-.45-1-1-1h-.92Zm-4.32,0c-.55,0-1,.45-1,1s.45,1,1,1h.92c.55,0,1-.45,1-1s-.45-1-1-1h-.92Z" fill="#d7e5eb" fill-rule="evenodd"/>
<circle cx="12.15" cy="53.89" fill="#e9a696" r="1"/>
<circle cx="24.31" cy="51.5" fill="#e9a696" r="1"/>
<circle cx="34.24" cy="54.07" fill="#e9a696" r="1"/>
<circle cx="49.17" cy="54.16" fill="#e9a696" r="1"/>
<circle cx="40.75" cy="52.15" fill="#e9a696" r="1"/>
</g>
<g id="r"/>
<g id="s"/>
<g id="t"/>
<g id="u"/>
<g id="v"/>
<g id="w"/>
<g id="x"/>
<g id="y"/>
<g id="a`"/>
<g id="aa"/>
<g id="ab"/>
<g id="ac"/>
<g id="ad"/>
<g id="ae"/>
<g id="af"/>
<g id="ag"/>
<g id="ah"/>
<g id="ai"/>
<g id="aj"/>
<g id="ak"/>
<g id="al"/>
<g id="am"/>
<g id="an"/>
<g id="ao"/>
<g id="ap"/>
<g id="aq"/>
<g id="ar"/>
<g id="as"/>
<g id="at"/>
<g id="au"/>
<g id="av"/>
<g id="aw"/>
<g id="ax"/>
</svg>