<?xml version="1.0" ?>
<!-- Uploaded to: SVG Repo, www.svgrepo.com, Generator: SVG Repo Mixer Tools -->
<svg width="800px" height="800px" viewBox="0 0 64 64" xmlns="http://www.w3.org/2000/svg">
<g id="a"/>
<g id="b"/>
<g id="c"/>
<g id="d"/>
<g id="e"/>
<g id="f"/>
<g id="g"/>
<g id="h"/>
<g id="i"/>
<g id="j"/>
<g id="k"/>
<g id="l"/>
<g id="m"/>
<g id="n"/>
<g id="o"/>
<g id="p"/>
<g id="q"/>
<g id="r">
<path d="M59,48.68v-4.46c0-1.73-1.94-2.75-3.68-1.55-1.73,1.2-4.42,1.2-6.45-.21-2.03-1.41-4.72-1.41-6.75,0-2.03,1.41-4.72,1.41-6.75,0-1.02-.71-2.2-1.06-3.38-1.06s-2.36,.35-3.38,1.06c-2.03,1.41-4.72,1.41-6.75,0-1.02-.71-2.2-1.05-3.38-1.05s-2.36,.35-3.38,1.05c-2.03,1.41-4.72,1.41-6.45,.21-1.73-1.2-3.68-.18-3.68,1.55v4.46H59Z" fill="#62d9fa" fill-rule="evenodd"/>
<path d="M19.96,30.78l4.59,1.42c1,.31,1.76,1.13,1.99,2.16l.76,3.41-1.11,11.75-7.01-.85s-6.94-16.65,.77-17.88Z" fill="#758797" fill-rule="evenodd"/>
<path d="M6.9,36v-11.04c0-1.84,1.49-3.33,3.33-3.33h3.31c1.03,0,2,.48,2.62,1.31l2.95,3.92c.92,1.23,1.2,2.82,.76,4.28l-.36,1.66c-.24,1.11-.24,2.26,0,3.37l2.37,10.75-.45,1.73-10.49,1.99-4.04-14.64Z" fill="#8598ab" fill-rule="evenodd"/>
<path d="M12.93,47.87l.36-3.95c.12-1.28-.13-2.57-.72-3.71l-2.12-4.12c-.38-.74-1.28-1.06-2.04-.73l-2.04,.88c-.83,.36-1.36,1.18-1.36,2.08v10.69s6.39,1.71,7.93-1.14Z" fill="#9dacb9" fill-rule="evenodd"/>
<path d="M23.72,47.78l.9-8.03c.08-.7,.56-1.29,1.23-1.51l2.77-.9c.68-.22,1.42-.05,1.93,.44l2.8,2.66c.54,.51,.86,1.21,.9,1.95l.23,4.02-5.1,4.12s-6.04,3.76-5.66-2.75Z" fill="#8598ab" fill-rule="evenodd"/>
<path d="M32,45.87c-1.18,0-2.36,.35-3.38,1.06-2.03,1.41-4.72,1.41-6.75,0-1.02-.7-2.2-1.05-3.38-1.05s-2.36,.35-3.38,1.05c-2.03,1.41-4.72,1.41-6.45,.21-1.73-1.2-3.68-.18-3.68,1.55v4.46l28.1,1.43,25.9-1.43v-4.46c0-1.73-1.94-2.75-3.68-1.55-1.73,1.2-4.42,1.2-6.45-.21-2.03-1.41-4.72-1.41-6.75,0-2.03,1.41-4.72,1.41-6.75,0-1.02-.7-2.2-1.06-3.38-1.06Z" fill="#0acffb" fill-rule="evenodd"/>
<path d="M34.17,50.74l2.86-3.19c.87-.97,2.04-1.63,3.33-1.86l3.48-.62c1.28-.23,2.6,.01,3.71,.68l3.06,1.83c1.04,.62,1.58,1.83,1.35,3.02l-.34,1.81-7.35,2.07s-10.22,.95-10.1-3.75Z" fill="#8598ab" fill-rule="evenodd"/>
<path d="M32,50.33c-1.18,0-2.36,.35-3.38,1.06-2.03,1.41-4.72,1.41-6.75,0-1.02-.7-2.2-1.05-3.38-1.05s-2.36,.35-3.38,1.05c-2.03,1.41-4.72,1.41-6.45,.21-1.73-1.2-3.68-.18-3.68,1.55v1.48c0,1.77,1.43,3.2,3.2,3.2H55.8c1.77,0,3.2-1.43,3.2-3.2v-1.48c0-1.73-1.94-2.75-3.68-1.55-1.73,1.2-4.42,1.2-6.45-.21-2.03-1.41-4.72-1.41-6.75,0-2.03,1.41-4.72,1.41-6.75,0-1.02-.7-2.2-1.06-3.38-1.06Z" fill="#62d9fa" fill-rule="evenodd"/>
<path d="M31.88,22.55c-1.15,0-2.08,.93-2.08,2.08s.93,2.08,2.08,2.08h7.56c.81,0,1.45,.65,1.45,1.46s-.65,1.46-1.45,1.46h-.67c-1.15,0-2.08,.93-2.08,2.08s.93,2.08,2.08,2.08h16.12c1.15,0,2.08-.93,2.08-2.08s-.93-2.08-2.08-2.08h-7.08c-.81,0-1.46-.65-1.46-1.46s.65-1.46,1.46-1.46h.89c1.15,0,2.08-.93,2.08-2.08s-.93-2.08-2.08-2.08H31.88Z" fill="#d1f1f4" fill-rule="evenodd"/>
<path d="M37.33,12.92h10.15c1.3,0,2.35,1.05,2.35,2.35s-1.05,2.34-2.35,2.34h-10.15c-1.3,0-2.35-1.05-2.35-2.34s1.05-2.35,2.35-2.35Z" fill="#d1f1f4" fill-rule="evenodd"/>
<path d="M33.12,6.19c1.15,0,2.08,.93,2.08,2.08s-.93,2.08-2.08,2.08h-7.56c-.81,0-1.45,.65-1.45,1.46s.65,1.46,1.45,1.46h.67c1.15,0,2.08,.93,2.08,2.08s-.93,2.08-2.08,2.08H10.12c-1.15,0-2.08-.93-2.08-2.08s.93-2.08,2.08-2.08h7.08c.81,0,1.46-.65,1.46-1.46s-.65-1.46-1.46-1.46h-.89c-1.15,0-2.08-.93-2.08-2.08s.93-2.08,2.08-2.08h16.81Z" fill="#d1f1f4" fill-rule="evenodd"/>
</g>
<g id="s"/>
<g id="t"/>
<g id="u"/>
<g id="v"/>
<g id="w"/>
<g id="x"/>
<g id="y"/>
<g id="a`"/>
<g id="aa"/>
<g id="ab"/>
<g id="ac"/>
<g id="ad"/>
<g id="ae"/>
<g id="af"/>
<g id="ag"/>
<g id="ah"/>
<g id="ai"/>
<g id="aj"/>
<g id="ak"/>
<g id="al"/>
<g id="am"/>
<g id="an"/>
<g id="ao"/>
<g id="ap"/>
<g id="aq"/>
<g id="ar"/>
<g id="as"/>
<g id="at"/>
<g id="au"/>
<g id="av"/>
<g id="aw"/>
<g id="ax"/>
</svg>