<?xml version="1.0" ?>
<!-- Uploaded to: SVG Repo, www.svgrepo.com, Generator: SVG Repo Mixer Tools -->
<svg width="800px" height="800px" viewBox="0 0 64 64" xmlns="http://www.w3.org/2000/svg">
<g id="a"/>
<g id="b"/>
<g id="c"/>
<g id="d"/>
<g id="e"/>
<g id="f"/>
<g id="g"/>
<g id="h"/>
<g id="i"/>
<g id="j"/>
<g id="k"/>
<g id="l"/>
<g id="m"/>
<g id="n"/>
<g id="o"/>
<g id="p"/>
<g id="q"/>
<g id="r"/>
<g id="s"/>
<g id="t"/>
<g id="u"/>
<g id="v"/>
<g id="w"/>
<g id="x"/>
<g id="y"/>
<g id="a`"/>
<g id="aa"/>
<g id="ab"/>
<g id="ac"/>
<g id="ad"/>
<g id="ae"/>
<g id="af"/>
<g id="ag"/>
<g id="ah"/>
<g id="ai"/>
<g id="aj"/>
<g id="ak"/>
<g id="al"/>
<g id="am"/>
<g id="an"/>
<g id="ao"/>
<g id="ap"/>
<g id="aq"/>
<g id="ar"/>
<g id="as"/>
<g id="at">
<path d="M43.89,6.23c-1.85,0-3.33,1.48-3.33,3.33,0,2.12-1.71,3.83-3.83,3.83h-2.05c-1.19,0-2.15,.96-2.15,2.15s.96,2.15,2.15,2.15h1.47c1.19,0,2.22,1.23,2.22,2.42v2.09l5.66,1.08,4.44-1.08v-3.08h3.3c1.19,0,2.15-.96,2.15-2.15s-.96-2.15-2.15-2.15h-2.87c-1.19,0-2.15-.96-2.15-2.15s.96-2.14,2.15-2.14h7.37c1.19,0,2.15-.96,2.15-2.15s-.96-2.15-2.15-2.15h-12.37Z" fill="#e2eef2" fill-rule="evenodd"/>
<path d="M50.94,25.75s.25,9.7,2.03,18.41l-8.88,1.69-10.23-1.69c1.78-8.71,2.03-18.41,2.03-18.41l8.01-1.55,7.05,1.55Z" fill="#f0f4f6" fill-rule="evenodd"/>
<path d="M35.89,22.2c-.99,0-1.78,.79-1.78,1.77s.79,1.78,1.78,1.78h15.06c.98,0,1.78-.79,1.78-1.78s-.79-1.77-1.78-1.77h-15.06Z" fill="#9dacb9" fill-rule="evenodd"/>
<path d="M25.35,6.23h6.35c1.19,0,2.15,.96,2.15,2.15s-.96,2.15-2.15,2.15h-6.35c-1.19,0-2.15-.96-2.15-2.15s.96-2.15,2.15-2.15Z" fill="#e2eef2" fill-rule="evenodd"/>
<path d="M8.95,13.7c-1.05,0-1.9,.84-1.9,1.9s.85,1.9,1.9,1.9h1.89c.74,0,1.33,.6,1.33,1.33s-.59,1.34-1.33,1.34h-.61c-1.05,0-1.9,.85-1.9,1.9s.85,1.9,1.9,1.9h13.64c1.05,0,1.9-.85,1.9-1.9s-.85-1.9-1.9-1.9h-5.38c-.74,0-1.34-.6-1.34-1.34s.6-1.33,1.34-1.33h.81c1.05,0,1.9-.85,1.9-1.9s-.85-1.9-1.9-1.9H8.95Z" fill="#e2eef2" fill-rule="evenodd"/>
<path d="M6.96,44.16c-1.09,0-1.96,.88-1.96,1.96v3.56H59v-3.56c0-1.08-.88-1.96-1.96-1.96H6.96Z" fill="#9af6d3" fill-rule="evenodd"/>
<path d="M52.97,44.16c.98,0,1.78,.79,1.78,1.78s-.79,1.78-1.78,1.78l-20.08,2.49,.05-4.25,.91-1.8h19.12Z" fill="#9dacb9" fill-rule="evenodd"/>
<path d="M29.66,37.61c-.4-3.9-.48-6.88-.48-6.88h-11.65s-.08,2.89-.46,6.7l1.82,4.16,8.32-.67,2.45-3.31Z" fill="#f0f4f6" fill-rule="evenodd"/>
<path d="M17.53,27.62c-.86,0-1.55,.69-1.55,1.55s.69,1.56,1.55,1.56h11.65c.86,0,1.55-.7,1.55-1.56s-.69-1.55-1.55-1.55h-11.65Z" fill="#9dacb9" fill-rule="evenodd"/>
<path d="M23.85,36.39c-.97-.06-1.76,.97-1.76,1.99v9.34l5.61,2.41,6.16-2.41v-7.67c0-1.09-.9-1.74-1.96-1.96l-7.85-1.67c-.07-.01-.13-.02-.2-.03Z" fill="#e2eef2" fill-rule="evenodd"/>
<path d="M12.08,36.39c-.97-.06-1.76,.97-1.76,1.99v9.34l5.61,2.41,6.16-2.41,2.32-3.62-2.32-4.05c0-1.09-.9-1.74-1.96-1.96l-7.85-1.67-.2-.03Z" fill="#e2eef2" fill-rule="evenodd"/>
<path d="M16.2,42.64c-.55,0-1,.45-1,1v4.08c0,.55,.45,1,1,1s1-.45,1-1v-4.08c0-.55-.45-1-1-1Z" fill="#9dacb9" fill-rule="evenodd"/>
<path d="M27.97,42.64c-.55,0-1,.45-1,1v4.08c0,.55,.45,1,1,1s1-.45,1-1v-4.08c0-.55-.45-1-1-1Z" fill="#9dacb9" fill-rule="evenodd"/>
<path d="M6.96,47.72H57.04c1.08,0,1.96,.88,1.96,1.96v6.13c0,1.08-.88,1.96-1.96,1.96H6.96c-1.08,0-1.96-.88-1.96-1.96v-6.13c0-1.08,.88-1.96,1.96-1.96Z" fill="#f0bdb0"/>
</g>
<g id="au"/>
<g id="av"/>
<g id="aw"/>
<g id="ax"/>
</svg>