<svg width="325" height="303" viewBox="0 0 325 303" fill="none" xmlns="http://www.w3.org/2000/svg">
<path d="M5.36302 162.764C5.47569 162.409 5.55369 162.058 5.59702 161.711C5.64902 161.364 5.67502 160.992 5.67502 160.593C5.67502 160.194 5.65335 159.835 5.61002 159.514C5.56669 159.193 5.48869 158.881 5.37602 158.578C5.13335 157.937 4.64802 157.616 3.92002 157.616C3.46069 157.616 3.07069 157.794 2.75002 158.149C2.46402 158.834 2.32102 159.783 2.32102 160.996C2.32102 162.105 2.48135 162.885 2.80202 163.336C3.09669 163.735 3.52135 163.934 4.07602 163.934C4.38802 163.934 4.65235 163.83 4.86902 163.622C5.09435 163.405 5.25902 163.119 5.36302 162.764ZM7.39102 160.502C7.39102 161.802 7.04869 162.903 6.36402 163.804C5.67935 164.705 4.74335 165.156 3.55602 165.156C2.85402 165.156 2.27335 164.97 1.81402 164.597C1.36335 164.216 1.04702 163.739 0.86502 163.167C0.691686 162.586 0.60502 161.906 0.60502 161.126C0.60502 159.817 0.947353 158.704 1.63202 157.785C2.32535 156.858 3.26135 156.394 4.44002 156.394C5.14202 156.394 5.71835 156.589 6.16902 156.979C6.62835 157.369 6.94469 157.859 7.11802 158.448C7.30002 159.037 7.39102 159.722 7.39102 160.502Z" fill="#525050"/>
<path d="M40.1134 59.999C40.1134 60.2937 40.0094 60.5493 39.8014 60.766C39.602 60.974 39.3204 61.078 38.9564 61.078C38.5924 61.078 37.9554 61.052 37.0454 61C36.1354 60.948 35.4334 60.922 34.9394 60.922C34.74 60.6273 34.6404 60.3197 34.6404 59.999C34.6404 59.6697 34.7747 59.3273 35.0434 58.972C35.312 58.608 35.637 58.27 36.0184 57.958C36.3997 57.6373 36.7767 57.3167 37.1494 56.996C37.5307 56.6753 37.8557 56.32 38.1244 55.93C38.393 55.54 38.5274 55.1717 38.5274 54.825C38.5274 54.4697 38.432 54.1793 38.2414 53.954C38.0507 53.7287 37.7907 53.616 37.4614 53.616C37.132 53.616 36.859 53.707 36.6424 53.889C36.469 54.149 36.3824 54.448 36.3824 54.786C36.3824 55.1153 36.4084 55.371 36.4604 55.553C36.287 55.5963 36.144 55.618 36.0314 55.618C35.6847 55.618 35.39 55.5227 35.1474 55.332C34.9134 55.1327 34.7964 54.8683 34.7964 54.539C34.7964 53.9063 35.091 53.3907 35.6804 52.992C36.2697 52.5933 36.924 52.394 37.6434 52.394C38.3627 52.394 38.9564 52.589 39.4244 52.979C39.8924 53.3603 40.1264 53.889 40.1264 54.565C40.1264 54.9637 40.0007 55.3667 39.7494 55.774C39.498 56.1813 39.1947 56.5583 38.8394 56.905C38.484 57.243 38.1244 57.5767 37.7604 57.906C36.9024 58.6773 36.4734 59.3273 36.4734 59.856C37.834 59.8387 38.9954 59.622 39.9574 59.206C40.0614 59.44 40.1134 59.7043 40.1134 59.999ZM42.944 58.959C42.944 59.271 43.0567 59.5137 43.282 59.687C43.516 59.8517 43.8323 59.934 44.231 59.934C44.6383 59.934 44.972 59.791 45.232 59.505C45.492 59.219 45.622 58.842 45.622 58.374C45.622 57.386 45.1757 56.892 44.283 56.892C44.1183 56.892 43.8193 56.9397 43.386 57.035C42.9613 57.1217 42.606 57.165 42.32 57.165C42.0427 57.165 41.7827 57.113 41.54 57.009C41.7393 55.8563 41.839 54.7643 41.839 53.733C41.839 53.031 42.2247 52.68 42.996 52.68C44.6253 52.68 45.8907 52.55 46.792 52.29C46.896 52.6367 46.948 52.9487 46.948 53.226C46.948 53.5033 46.844 53.72 46.636 53.876C46.4367 54.0233 46.181 54.097 45.869 54.097C45.5657 54.097 45.1107 54.0667 44.504 54.006C43.8973 53.9367 43.529 53.8977 43.399 53.889C43.295 54.3657 43.243 55.0503 43.243 55.943C43.867 55.813 44.3437 55.748 44.673 55.748C45.4703 55.748 46.116 55.9387 46.61 56.32C47.104 56.7013 47.351 57.256 47.351 57.984C47.351 58.9287 46.9957 59.6957 46.285 60.285C45.583 60.8657 44.7337 61.156 43.737 61.156C43.0697 61.156 42.4933 61.0217 42.008 60.753C41.5313 60.4843 41.293 60.0813 41.293 59.544C41.293 59.1973 41.41 58.92 41.644 58.712C41.878 58.504 42.1727 58.4 42.528 58.4C42.7187 58.4 42.8877 58.4217 43.035 58.465C42.9743 58.6383 42.944 58.803 42.944 58.959Z" fill="#525050"/>
<path d="M151.644 13.959C151.644 14.271 151.757 14.5137 151.982 14.687C152.216 14.8517 152.533 14.934 152.931 14.934C153.339 14.934 153.672 14.791 153.932 14.505C154.192 14.219 154.322 13.842 154.322 13.374C154.322 12.386 153.876 11.892 152.983 11.892C152.819 11.892 152.52 11.9397 152.086 12.035C151.662 12.1217 151.306 12.165 151.02 12.165C150.743 12.165 150.483 12.113 150.24 12.009C150.44 10.8563 150.539 9.76433 150.539 8.733C150.539 8.031 150.925 7.68 151.696 7.68C153.326 7.68 154.591 7.55 155.492 7.29C155.596 7.63667 155.648 7.94867 155.648 8.226C155.648 8.50333 155.544 8.72 155.336 8.876C155.137 9.02333 154.881 9.097 154.569 9.097C154.266 9.097 153.811 9.06667 153.204 9.006C152.598 8.93667 152.229 8.89767 152.099 8.889C151.995 9.36567 151.943 10.0503 151.943 10.943C152.567 10.813 153.044 10.748 153.373 10.748C154.171 10.748 154.816 10.9387 155.31 11.32C155.804 11.7013 156.051 12.256 156.051 12.984C156.051 13.9287 155.696 14.6957 154.985 15.285C154.283 15.8657 153.434 16.156 152.437 16.156C151.77 16.156 151.194 16.0217 150.708 15.753C150.232 15.4843 149.993 15.0813 149.993 14.544C149.993 14.1973 150.11 13.92 150.344 13.712C150.578 13.504 150.873 13.4 151.228 13.4C151.419 13.4 151.588 13.4217 151.735 13.465C151.675 13.6383 151.644 13.803 151.644 13.959ZM161.975 13.764C162.088 13.4087 162.166 13.0577 162.209 12.711C162.261 12.3643 162.287 11.9917 162.287 11.593C162.287 11.1943 162.265 10.8347 162.222 10.514C162.179 10.1933 162.101 9.88133 161.988 9.578C161.745 8.93667 161.26 8.616 160.532 8.616C160.073 8.616 159.683 8.79367 159.362 9.149C159.076 9.83367 158.933 10.7827 158.933 11.996C158.933 13.1053 159.093 13.8853 159.414 14.336C159.709 14.7347 160.133 14.934 160.688 14.934C161 14.934 161.264 14.83 161.481 14.622C161.706 14.4053 161.871 14.1193 161.975 13.764ZM164.003 11.502C164.003 12.802 163.661 13.9027 162.976 14.804C162.291 15.7053 161.355 16.156 160.168 16.156C159.466 16.156 158.885 15.9697 158.426 15.597C157.975 15.2157 157.659 14.739 157.477 14.167C157.304 13.5863 157.217 12.906 157.217 12.126C157.217 10.8173 157.559 9.70367 158.244 8.785C158.937 7.85767 159.873 7.394 161.052 7.394C161.754 7.394 162.33 7.589 162.781 7.979C163.24 8.369 163.557 8.85867 163.73 9.448C163.912 10.0373 164.003 10.722 164.003 11.502Z" fill="#525050"/>
<path d="M264.892 52.433C265.508 52.563 266.283 52.628 267.219 52.628C267.497 52.628 267.891 52.602 268.402 52.55C268.922 52.4893 269.312 52.459 269.572 52.459C269.832 52.459 270.032 52.5197 270.17 52.641C270.309 52.7623 270.378 52.9833 270.378 53.304C270.378 53.6247 270.266 54.0103 270.04 54.461C269.815 54.903 269.429 55.553 268.883 56.411C268.337 57.269 267.943 58.036 267.7 58.712C267.466 59.388 267.349 60.1203 267.349 60.909C267.081 61.0217 266.799 61.078 266.504 61.078C266.21 61.078 265.967 61.0087 265.776 60.87C265.594 60.7313 265.503 60.5103 265.503 60.207C265.503 59.895 265.664 59.4357 265.984 58.829C266.305 58.2137 266.669 57.6243 267.076 57.061C268.177 55.5097 268.814 54.396 268.987 53.72C268.641 53.746 268.103 53.824 267.375 53.954C266.647 54.0753 266.123 54.136 265.802 54.136C265.482 54.136 265.222 54.045 265.022 53.863C264.823 53.681 264.723 53.4687 264.723 53.226C264.723 52.9747 264.78 52.7103 264.892 52.433ZM272.874 58.959C272.874 59.271 272.987 59.5137 273.212 59.687C273.446 59.8517 273.763 59.934 274.161 59.934C274.569 59.934 274.902 59.791 275.162 59.505C275.422 59.219 275.552 58.842 275.552 58.374C275.552 57.386 275.106 56.892 274.213 56.892C274.049 56.892 273.75 56.9397 273.316 57.035C272.892 57.1217 272.536 57.165 272.25 57.165C271.973 57.165 271.713 57.113 271.47 57.009C271.67 55.8563 271.769 54.7643 271.769 53.733C271.769 53.031 272.155 52.68 272.926 52.68C274.556 52.68 275.821 52.55 276.722 52.29C276.826 52.6367 276.878 52.9487 276.878 53.226C276.878 53.5033 276.774 53.72 276.566 53.876C276.367 54.0233 276.111 54.097 275.799 54.097C275.496 54.097 275.041 54.0667 274.434 54.006C273.828 53.9367 273.459 53.8977 273.329 53.889C273.225 54.3657 273.173 55.0503 273.173 55.943C273.797 55.813 274.274 55.748 274.603 55.748C275.401 55.748 276.046 55.9387 276.54 56.32C277.034 56.7013 277.281 57.256 277.281 57.984C277.281 58.9287 276.926 59.6957 276.215 60.285C275.513 60.8657 274.664 61.156 273.667 61.156C273 61.156 272.424 61.0217 271.938 60.753C271.462 60.4843 271.223 60.0813 271.223 59.544C271.223 59.1973 271.34 58.92 271.574 58.712C271.808 58.504 272.103 58.4 272.458 58.4C272.649 58.4 272.818 58.4217 272.965 58.465C272.905 58.6383 272.874 58.803 272.874 58.959Z" fill="#525050"/>
<path d="M304.01 158.318C304.495 158.119 305.015 157.772 305.57 157.278C305.838 157.035 306.09 156.827 306.324 156.654C306.558 156.481 306.844 156.394 307.182 156.394C307.528 156.394 307.823 156.455 308.066 156.576C307.858 158.223 307.754 159.765 307.754 161.204C307.754 162.643 307.832 163.882 307.988 164.922C307.745 165.026 307.463 165.078 307.143 165.078C306.822 165.078 306.562 164.974 306.363 164.766C306.163 164.558 306.064 164.281 306.064 163.934C306.064 163.579 306.133 162.838 306.272 161.711C306.41 160.584 306.484 159.362 306.493 158.045C306.397 158.132 306.237 158.305 306.012 158.565C305.509 159.146 305.115 159.436 304.829 159.436C304.551 159.436 304.343 159.332 304.205 159.124C304.075 158.916 304.01 158.647 304.01 158.318ZM313.998 162.764C314.111 162.409 314.189 162.058 314.232 161.711C314.284 161.364 314.31 160.992 314.31 160.593C314.31 160.194 314.289 159.835 314.245 159.514C314.202 159.193 314.124 158.881 314.011 158.578C313.769 157.937 313.283 157.616 312.555 157.616C312.096 157.616 311.706 157.794 311.385 158.149C311.099 158.834 310.956 159.783 310.956 160.996C310.956 162.105 311.117 162.885 311.437 163.336C311.732 163.735 312.157 163.934 312.711 163.934C313.023 163.934 313.288 163.83 313.504 163.622C313.73 163.405 313.894 163.119 313.998 162.764ZM316.026 160.502C316.026 161.802 315.684 162.903 314.999 163.804C314.315 164.705 313.379 165.156 312.191 165.156C311.489 165.156 310.909 164.97 310.449 164.597C309.999 164.216 309.682 163.739 309.5 163.167C309.327 162.586 309.24 161.906 309.24 161.126C309.24 159.817 309.583 158.704 310.267 157.785C310.961 156.858 311.897 156.394 313.075 156.394C313.777 156.394 314.354 156.589 314.804 156.979C315.264 157.369 315.58 157.859 315.753 158.448C315.935 159.037 316.026 159.722 316.026 160.502ZM321.958 162.764C322.071 162.409 322.149 162.058 322.192 161.711C322.244 161.364 322.27 160.992 322.27 160.593C322.27 160.194 322.249 159.835 322.205 159.514C322.162 159.193 322.084 158.881 321.971 158.578C321.729 157.937 321.243 157.616 320.515 157.616C320.056 157.616 319.666 157.794 319.345 158.149C319.059 158.834 318.916 159.783 318.916 160.996C318.916 162.105 319.077 162.885 319.397 163.336C319.692 163.735 320.117 163.934 320.671 163.934C320.983 163.934 321.248 163.83 321.464 163.622C321.69 163.405 321.854 163.119 321.958 162.764ZM323.986 160.502C323.986 161.802 323.644 162.903 322.959 163.804C322.275 164.705 321.339 165.156 320.151 165.156C319.449 165.156 318.869 164.97 318.409 164.597C317.959 164.216 317.642 163.739 317.46 163.167C317.287 162.586 317.2 161.906 317.2 161.126C317.2 159.817 317.543 158.704 318.227 157.785C318.921 156.858 319.857 156.394 321.035 156.394C321.737 156.394 322.314 156.589 322.764 156.979C323.224 157.369 323.54 157.859 323.713 158.448C323.895 159.037 323.986 159.722 323.986 160.502Z" fill="#525050"/>
<path d="M223.121 164.5C223.673 164.5 224.121 164.052 224.113 163.5C223.987 155.174 222.286 146.945 219.097 139.246C215.781 131.24 210.92 123.965 204.792 117.837C198.664 111.709 191.39 106.848 183.383 103.532C175.377 100.216 166.795 98.5088 158.129 98.5088C149.463 98.5088 140.882 100.216 132.876 103.532C124.869 106.848 117.594 111.709 111.467 117.837C105.339 123.965 100.478 131.24 97.1615 139.246C93.9727 146.945 92.2719 155.174 92.1458 163.5C92.1374 164.052 92.5859 164.5 93.1382 164.5L158.129 164.5H223.121Z" fill="url(#paint0_linear_79_39)" fill-opacity="0.2"/>
<path d="M295 164.5C295 127.768 280.408 92.5395 254.434 66.5657C228.461 40.5919 193.232 26 156.5 26C119.768 26 84.5395 40.5919 58.5657 66.5657C32.5919 92.5395 18 127.767 18 164.5L71.4625 164.5C71.4625 141.947 80.4218 120.317 96.3694 104.369C112.317 88.4218 133.947 79.4625 156.5 79.4625C179.053 79.4625 200.683 88.4218 216.631 104.369C232.578 120.317 241.537 141.947 241.537 164.5H295Z" fill="url(#paint1_linear_79_39)"/>
<line x1="58.3536" y1="66.6464" x2="63.3536" y2="71.6464" stroke="white"/>
<line y1="-0.5" x2="7.07107" y2="-0.5" transform="matrix(-0.707107 0.707107 0.707107 0.707107 255 67)" stroke="white"/>
<line x1="156.5" y1="26" x2="156.5" y2="33.0711" stroke="white"/>
<defs>
<linearGradient id="paint0_linear_79_39" x1="92.1382" y1="165.349" x2="224.121" y2="163.651" gradientUnits="userSpaceOnUse">
<stop offset="0.0625" stop-color="#95FB6F"/>
<stop offset="0.274038" stop-color="#E8D82E"/>
<stop offset="0.475962" stop-color="#F09C48"/>
<stop offset="0.668269" stop-color="#FE604C"/>
<stop offset="0.8125" stop-color="#F343DB"/>
<stop offset="1" stop-color="#8D2CCE"/>
</linearGradient>
<linearGradient id="paint1_linear_79_39" x1="18" y1="166.281" x2="295" y2="162.719" gradientUnits="userSpaceOnUse">
<stop offset="0.0673077" stop-color="#95FB6F"/>
<stop offset="0.288462" stop-color="#E8D82E"/>
<stop offset="0.475962" stop-color="#F09C48"/>
<stop offset="0.610577" stop-color="#FE604C"/>
<stop offset="0.788462" stop-color="#F343DB"/>
<stop offset="0.971154" stop-color="#8D2CCE"/>
</linearGradient>
</defs>
</svg>
