<?xml version="1.0" ?>
<!-- Uploaded to: SVG Repo, www.svgrepo.com, Generator: SVG Repo Mixer Tools -->
<svg width="800px" height="800px" viewBox="0 0 64 64" xmlns="http://www.w3.org/2000/svg">
<g id="a"/>
<g id="b"/>
<g id="c"/>
<g id="d"/>
<g id="e"/>
<g id="f"/>
<g id="g"/>
<g id="h"/>
<g id="i"/>
<g id="j"/>
<g id="k"/>
<g id="l"/>
<g id="m"/>
<g id="n"/>
<g id="o"/>
<g id="p">
<path d="M15.26,35.76c2.2-7.42,9.01-12.5,16.74-12.5,2.88,0,5.71,.71,8.24,2.07l7.46,3.04,1.51,9.4c.17,.97,.25,1.96,.25,2.95,0,.45-.02,.9-.05,1.36l-8.82,8.18-19.68,.32-5.65-14.81Z" fill="#fce87b" fill-rule="evenodd"/>
<path d="M32,13.3c1.05,0,1.9,.85,1.9,1.9v2.8c0,1.05-.85,1.9-1.9,1.9s-1.9-.85-1.9-1.9v-2.8c0-1.05,.85-1.9,1.9-1.9Z" fill="#fdda5c" fill-rule="evenodd"/>
<path d="M32,13.3c1.05,0,1.9,.85,1.9,1.9v2.8c0,1.05-.85,1.9-1.9,1.9s-1.9-.85-1.9-1.9v-2.8c0-1.05,.85-1.9,1.9-1.9Z" fill="#fdda5c" fill-rule="evenodd"/>
<path d="M45.46,16.9c.91,.53,1.22,1.68,.7,2.6l-1.4,2.43c-.53,.91-1.68,1.22-2.6,.69-.91-.53-1.22-1.68-.7-2.6l1.4-2.43c.53-.91,1.68-1.22,2.59-.7Z" fill="#fdda5c" fill-rule="evenodd"/>
<path d="M8.69,26.75c.53-.91,1.68-1.22,2.6-.7l2.43,1.4c.91,.53,1.22,1.68,.7,2.6-.53,.91-1.68,1.22-2.59,.69l-2.43-1.4c-.91-.53-1.22-1.68-.7-2.6Z" fill="#fdda5c" fill-rule="evenodd"/>
<path d="M18.54,16.9c.91-.53,2.07-.22,2.59,.7l1.4,2.43c.53,.91,.22,2.07-.7,2.6-.91,.53-2.07,.22-2.6-.69l-1.4-2.43c-.53-.91-.22-2.07,.7-2.6Z" fill="#fdda5c" fill-rule="evenodd"/>
<path d="M7.16,35.77c-1.19,0-2.16,.97-2.16,2.16v5.61l11.53,1.01,6.29-2.24h1.73c1.81,0,3.27-1.46,3.27-3.27s-1.46-3.27-3.27-3.27H7.16Z" fill="#d1f1f4" fill-rule="evenodd"/>
<path d="M56.05,37.77c1.28,0,2.3-1.03,2.3-2.3s-1.03-2.3-2.3-2.3h-2.29c-.89,0-1.61-.73-1.61-1.62s.72-1.61,1.61-1.62h.74c1.28,0,2.3-1.03,2.3-2.3s-1.03-2.3-2.3-2.3h-19.17c-1.27,0-2.3,1.03-2.3,2.3s1.03,2.29,2.3,2.3l8.2,.07c.9,0,1.62,.72,1.62,1.62s-.72,1.68-1.62,1.62l-.98-.07c-1.27-.09-2.3,1.03-2.3,2.3s1.03,2.3,2.3,2.3h13.5Z" fill="#d1f1f4" fill-rule="evenodd"/>
<path d="M45.96,9.79h9.08c1.3,0,2.35,1.05,2.35,2.35s-1.05,2.35-2.35,2.35h-9.08c-1.3,0-2.35-1.05-2.35-2.35s1.05-2.35,2.35-2.35Z" fill="#d1f1f4" fill-rule="evenodd"/>
<path d="M12.09,6.94h9.08c1.3,0,2.35,1.05,2.35,2.35s-1.05,2.35-2.35,2.35H12.09c-1.3,0-2.35-1.05-2.35-2.35s1.05-2.35,2.35-2.35Z" fill="#d1f1f4" fill-rule="evenodd"/>
<path d="M59,47.99v-4.46c0-1.73-1.94-2.75-3.68-1.55-1.73,1.2-4.41,1.2-6.45-.21-2.03-1.41-4.72-1.41-6.75,0-2.03,1.41-4.72,1.41-6.75,0-1.02-.7-2.2-1.06-3.38-1.06s-2.36,.35-3.38,1.06c-2.03,1.41-4.72,1.41-6.75,0-1.02-.7-2.2-1.05-3.38-1.05s-2.36,.35-3.38,1.05c-2.03,1.41-4.72,1.41-6.45,.21-1.73-1.2-3.68-.18-3.68,1.55v4.46H59Z" fill="#62d9fa" fill-rule="evenodd"/>
<path d="M32,45.18c-1.18,0-2.36,.35-3.38,1.06-2.03,1.41-4.72,1.41-6.75,0-1.02-.7-2.2-1.05-3.38-1.05s-2.36,.35-3.38,1.05c-2.03,1.41-4.72,1.41-6.45,.21-1.73-1.2-3.68-.18-3.68,1.55v4.46l28.1,1.43,25.9-1.43v-4.46c0-1.73-1.94-2.75-3.68-1.55-1.73,1.2-4.41,1.2-6.45-.21-2.03-1.41-4.72-1.41-6.75,0-2.03,1.41-4.72,1.41-6.75,0-1.02-.7-2.2-1.06-3.38-1.06Z" fill="#0acffb" fill-rule="evenodd"/>
<path d="M32,49.64c-1.18,0-2.36,.35-3.38,1.06-2.03,1.41-4.72,1.41-6.75,0-1.02-.7-2.2-1.05-3.38-1.05s-2.36,.35-3.38,1.05c-2.03,1.41-4.72,1.41-6.45,.21-1.73-1.2-3.68-.18-3.68,1.55v1.48c0,1.77,1.43,3.2,3.2,3.2H55.8c1.77,0,3.2-1.43,3.2-3.2v-1.48c0-1.73-1.94-2.75-3.68-1.55-1.73,1.2-4.41,1.2-6.45-.21-2.03-1.41-4.72-1.41-6.75,0-2.03,1.41-4.72,1.41-6.75,0-1.02-.7-2.2-1.06-3.38-1.06Z" fill="#62d9fa" fill-rule="evenodd"/>
</g>
<g id="q"/>
<g id="r"/>
<g id="s"/>
<g id="t"/>
<g id="u"/>
<g id="v"/>
<g id="w"/>
<g id="x"/>
<g id="y"/>
<g id="a`"/>
<g id="aa"/>
<g id="ab"/>
<g id="ac"/>
<g id="ad"/>
<g id="ae"/>
<g id="af"/>
<g id="ag"/>
<g id="ah"/>
<g id="ai"/>
<g id="aj"/>
<g id="ak"/>
<g id="al"/>
<g id="am"/>
<g id="an"/>
<g id="ao"/>
<g id="ap"/>
<g id="aq"/>
<g id="ar"/>
<g id="as"/>
<g id="at"/>
<g id="au"/>
<g id="av"/>
<g id="aw"/>
<g id="ax"/>
</svg>