<svg width="173" height="173" viewBox="0 0 173 173" fill="none" xmlns="http://www.w3.org/2000/svg">
<path d="M52.2298 39.6199C44.1532 50.0081 44.2875 68.4728 54.6219 77.6111C66.3539 87.9858 82.8566 87.8917 93.2447 78.3368C105.689 66.8871 104.977 47.8175 93.9704 37.0263C82.8969 26.1678 63.1286 25.6034 52.2298 39.6199Z" fill="#FFDB77"/>
<path d="M65.2115 36.0587C62.0131 34.6342 58.5191 38.4911 56.9871 41.1385C55.4685 43.7725 54.044 48.9464 57.2962 50.2768C60.5483 51.5938 62.8732 49.363 65.2115 45.5061C67.5499 41.6357 68.8669 37.6847 65.2115 36.0587Z" fill="#FFF3C1"/>
<path d="M73.5302 21.5718C72.7507 23.0232 73.0195 24.1386 74.5515 24.5014C76.0835 24.8643 85.6788 26.4231 86.4851 26.4769C87.6542 26.5441 88.0977 25.6706 87.9499 24.6492C87.8021 23.6279 85.4637 9.27537 85.2353 7.95838C85.0203 6.64139 83.6226 5.3244 82.3056 7.08487C80.9887 8.84534 74.1215 20.4698 73.5302 21.5718Z" fill="#FFCC7F"/>
<path d="M98.3379 31.5299C96.8327 32.0002 96.8731 32.9141 97.6794 34.0967C98.4857 35.2658 104.049 43.7591 104.56 44.3369C105.071 44.9282 105.944 45.0626 106.683 44.1891C107.422 43.3156 116.561 30.4951 117.219 29.7022C118.321 28.3852 117.663 26.9876 115.969 27.4311C114.706 27.767 99.292 31.2342 98.3379 31.5299Z" fill="#FFCC7F"/>
<path d="M41.2504 70.4617C42.2718 68.7819 43.5888 69.2119 44.5429 70.8246C45.188 71.9265 50.6844 79.3178 51.2085 80.1241C51.7192 80.9304 51.9342 82.4625 50.335 82.8387C48.7224 83.2016 35.6196 86.6419 33.5769 87.0047C31.5343 87.3676 30.3517 85.7549 31.6687 84.0079C32.4347 82.9731 40.6726 71.4159 41.2504 70.4617Z" fill="#FFCC7F"/>
<path d="M38.482 57.7219C40.35 58.5551 41.2369 58.2594 41.6266 56.9155C42.1373 55.1551 43.6693 47.1053 43.7499 45.2776C43.8037 44.0816 43.3065 42.9393 41.4788 43.235C39.6511 43.5306 26.4812 45.3583 24.788 45.9496C22.8394 46.6349 22.9737 48.7851 24.2773 49.4571C25.8093 50.2634 37.165 57.144 38.482 57.7219Z" fill="#FFCC7F"/>
<path d="M61.2337 26.9875C62.2819 26.1409 61.9594 24.9449 61.0187 24.2729C60.0645 23.6144 48.3057 15.1077 46.814 13.952C45.497 12.9307 43.8843 13.2935 44.3278 15.6318C44.6369 17.3117 48.3863 32.0405 48.6416 33.0484C48.9373 34.2176 49.8108 34.8089 50.8321 34.0697C51.8669 33.3575 60.1451 27.8611 61.2337 26.9875Z" fill="#FFCC7F"/>
<path d="M134.112 88.0261C134.112 88.0261 138.869 56.4855 110.46 49.0136C79.6179 40.8966 72.3879 69.5345 72.3879 69.5345C72.3879 69.5345 63.4108 67.0886 55.1192 73.7542C48.6283 78.9684 47.5129 88.1605 47.5129 88.1605C47.5129 88.1605 34.8671 87.7304 29.4378 96.4522C24.2774 104.744 29.4378 110.186 29.4378 110.186L104.076 107.19L150.023 107.458C150.023 107.458 153.343 98.8308 146.959 92.8506C140.562 86.8838 134.112 88.0261 134.112 88.0261Z" fill="#E2EBEE"/>
<path d="M83.1388 91.1573C83.1388 91.1573 88.8502 96.8687 103.807 95.9146C118.765 94.9604 126.64 89.6656 128.414 88.8458C130.188 88.0261 132.217 86.1312 132.902 87.4885C133.588 88.8458 132.082 92.649 130.053 95.377C128.011 98.0916 126.868 99.7446 126.519 100.954C126.25 101.908 130.739 103.266 139.165 103.669C146.368 104.018 150.91 102.567 150.91 102.567C150.91 102.567 151.112 107.096 149.351 110.63C147.712 113.896 146.005 114.957 143.29 115.508C141.893 115.79 115.513 115.777 92.8146 116.314C70.1167 116.852 40.4709 117.806 35.4449 116.18C30.4188 114.554 29.1824 111.369 28.5374 110.133C27.4085 108.009 27.1666 104.69 27.1666 104.69C27.1666 104.69 32.7302 107.485 40.6188 106.397C48.5073 105.308 52.7136 101.236 53.8021 100.82C54.8906 100.417 60.0511 102.997 68.2084 100.954C79.6044 98.0916 83.1388 91.1573 83.1388 91.1573Z" fill="#C4D8DD"/>
<path d="M64.2843 122.631C62.5104 121.986 54.81 127.509 52.0416 134.873C47.9563 145.745 62.5104 149.374 65.5744 138.905C66.7436 134.927 66.7301 123.518 64.2843 122.631Z" fill="#A2DCF6"/>
<path d="M121.815 130.56C120.243 129.861 113.994 134.618 111.158 138.609C108.444 142.426 106.025 148.876 112.691 152.182C119.961 155.771 123.267 147.963 123.576 142.291C123.858 137.158 123.2 131.178 121.815 130.56Z" fill="#A2DCF6"/>
<path d="M90.1672 143.447C88.1917 142.977 80.6123 149.132 77.8977 154.87C72.455 166.374 89.1727 170.432 91.2423 159.399C92.5593 152.397 91.7798 143.824 90.1672 143.447Z" fill="#A2DCF6"/>
<path d="M83.0716 152.384C81.4993 151.752 78.4353 155.609 78.7713 159.036C79.1207 162.463 81.9428 162.772 83.2866 160.877C85.0874 158.364 84.6305 153.002 83.0716 152.384Z" fill="#D6F5FF"/>
<path d="M56.7855 131.567C55.2938 130.869 52.7404 134.954 52.7673 137.064C52.8345 141.364 56.006 141.646 57.4843 139.523C58.9625 137.413 58.8953 132.562 56.7855 131.567Z" fill="#D6F5FF"/>
<path d="M114.773 139.913C113 139.066 109.949 142.977 110.177 145.812C110.581 150.704 114.464 150.408 115.768 147.734C117.071 145.06 116.373 140.679 114.773 139.913Z" fill="#D6F5FF"/>
</svg>
