<svg width="28" height="24" viewBox="0 0 28 24" fill="none" xmlns="http://www.w3.org/2000/svg">
<path d="M22.9092 18.0199C23.3312 18.4977 24.0698 18.4977 24.571 17.9553C26.7602 15.6304 28 12.5305 28 9.1853C28 5.84004 26.7602 2.74019 24.571 0.41533C24.0698 -0.127158 23.3312 -0.127158 22.9092 0.350688C22.4871 0.815694 22.6058 1.42277 23.0938 1.95231C24.861 3.87681 25.8502 6.40832 25.8502 9.1853C25.8502 11.9623 24.861 14.4938 23.0938 16.4183C22.6058 16.9479 22.4871 17.5549 22.9092 18.0199ZM5.09094 18.0199C5.51299 17.5549 5.38109 16.9479 4.90626 16.4183C3.13895 14.4938 2.14979 11.9623 2.14979 9.1853C2.14979 6.40832 3.13895 3.87681 4.90626 1.95231C5.38109 1.42277 5.51299 0.815694 5.09094 0.350688C4.6689 -0.127158 3.93026 -0.127158 3.41593 0.41533C1.22652 2.74019 0 5.84004 0 9.1853C0 12.5305 1.22652 15.6304 3.41593 17.9553C3.93026 18.4977 4.6689 18.4977 5.09094 18.0199ZM9.0476 14.3388C9.46964 13.8738 9.28501 13.2926 8.87613 12.7372C8.08483 11.7814 7.68912 10.5286 7.68912 9.1853C7.68912 7.84203 8.11116 6.62793 8.87613 5.63339C9.28501 5.06511 9.46964 4.49678 9.0476 4.03177C8.61238 3.54097 7.82102 3.52808 7.35941 4.1222C6.21196 5.51716 5.53933 7.28664 5.53933 9.1853C5.53933 11.0839 6.21196 12.8535 7.35941 14.2484C7.82102 14.8425 8.61238 14.8296 9.0476 14.3388ZM18.9393 14.3388C19.3877 14.8296 20.1659 14.8425 20.6406 14.2484C21.7881 12.8535 22.4476 11.0839 22.4476 9.1853C22.4476 7.28664 21.7881 5.51716 20.6406 4.1222C20.1659 3.52808 19.3877 3.54097 18.9393 4.03177C18.5172 4.49678 18.7019 5.06511 19.1108 5.63339C19.8757 6.62793 20.2978 7.84203 20.2978 9.1853C20.2978 10.5286 19.9021 11.7814 19.1108 12.7372C18.7019 13.2926 18.5172 13.8738 18.9393 14.3388ZM13.9935 24C14.6265 24 15.009 23.5608 15.009 22.8892V11.2906C15.8136 10.916 16.3675 10.1153 16.3675 9.1853C16.3675 7.89372 15.3255 6.84748 13.9935 6.84748C12.6746 6.84748 11.6326 7.89372 11.6326 9.1853C11.6326 10.1153 12.1734 10.916 12.9911 11.2906V22.8892C12.9911 23.5479 13.4 24 13.9935 24Z" fill="#525050"/>
</svg>
