<svg width="30" height="24" viewBox="0 0 30 24" fill="none" xmlns="http://www.w3.org/2000/svg">
<path d="M1.25873 8.81205C0.976936 8.81205 0.706684 8.70011 0.507427 8.50085C0.30817 8.30159 0.196228 8.03134 0.196228 7.74955C0.196228 7.46776 0.30817 7.19751 0.507427 6.99825C0.706684 6.79899 0.976936 6.68705 1.25873 6.68705H14.0087C14.397 6.68688 14.7777 6.58037 15.1097 6.37906C15.4417 6.17775 15.7121 5.88935 15.8917 5.54516C16.0714 5.20097 16.1532 4.81416 16.1285 4.42671C16.1038 4.03927 15.9734 3.666 15.7515 3.34744C15.5296 3.02887 15.2246 2.77719 14.8698 2.61971C14.5149 2.46224 14.1237 2.40499 13.7386 2.45417C13.3535 2.50336 12.9892 2.65711 12.6853 2.89873C12.3815 3.14034 12.1496 3.46059 12.0149 3.82471C11.9664 3.95557 11.8927 4.07561 11.7979 4.17797C11.7031 4.28034 11.589 4.36303 11.4623 4.42132C11.3355 4.47962 11.1985 4.51237 11.059 4.51771C10.9196 4.52305 10.7805 4.50087 10.6496 4.45245C10.5188 4.40403 10.3987 4.33031 10.2964 4.23549C10.194 4.14068 10.1113 4.02663 10.053 3.89985C9.99473 3.77308 9.96197 3.63607 9.95663 3.49664C9.95129 3.35721 9.97347 3.21809 10.0219 3.08723C10.2913 2.35884 10.7551 1.71819 11.363 1.23484C11.9708 0.751485 12.6995 0.443915 13.4699 0.345528C14.2402 0.247141 15.0228 0.361697 15.7327 0.676756C16.4425 0.991815 17.0524 1.49533 17.4963 2.13263C17.9401 2.76993 18.2008 3.51665 18.2501 4.29169C18.2995 5.06674 18.1355 5.84049 17.7761 6.52891C17.4166 7.21733 16.8754 7.79412 16.2113 8.19662C15.5471 8.59913 14.7853 8.81198 14.0087 8.81205H1.25873ZM18.2587 15.187H3.38373C3.10194 15.187 2.83168 15.299 2.63243 15.4982C2.43317 15.6975 2.32123 15.9678 2.32123 16.2495C2.32123 16.5313 2.43317 16.8016 2.63243 17.0009C2.83168 17.2001 3.10194 17.312 3.38373 17.312H18.2587C18.647 17.3122 19.0277 17.4187 19.3597 17.62C19.6917 17.8214 19.9621 18.1098 20.1417 18.4539C20.3214 18.7981 20.4032 19.1849 20.3785 19.5724C20.3538 19.9598 20.2234 20.3331 20.0015 20.6517C19.7796 20.9702 19.4746 21.2219 19.1198 21.3794C18.7649 21.5369 18.3737 21.5941 17.9886 21.5449C17.6035 21.4957 17.2392 21.342 16.9353 21.1004C16.6315 20.8588 16.3996 20.5385 16.2649 20.1744C16.2164 20.0435 16.1427 19.9235 16.0479 19.8211C15.9531 19.7188 15.839 19.6361 15.7123 19.5778C15.5855 19.5195 15.4485 19.4867 15.309 19.4814C15.1696 19.476 15.0305 19.4982 14.8996 19.5466C14.7688 19.5951 14.6487 19.6688 14.5464 19.7636C14.444 19.8584 14.3613 19.9725 14.303 20.0992C14.2447 20.226 14.212 20.363 14.2066 20.5025C14.2013 20.6419 14.2235 20.781 14.2719 20.9119C14.5413 21.6403 15.0051 22.2809 15.613 22.7643C16.2208 23.2476 16.9495 23.5552 17.7199 23.6536C18.4902 23.752 19.2728 23.6374 19.9827 23.3223C20.6925 23.0073 21.3024 22.5038 21.7463 21.8665C22.1901 21.2292 22.4508 20.4825 22.5001 19.7074C22.5495 18.9324 22.3855 18.1586 22.0261 17.4702C21.6666 16.7818 21.1254 16.205 20.4613 15.8025C19.7971 15.4 19.0353 15.1871 18.2587 15.187ZM25.6962 4.56205C24.8283 4.56433 23.9817 4.83119 23.2694 5.32703C22.5571 5.82287 22.0129 6.52412 21.7094 7.33723C21.661 7.46809 21.6388 7.60721 21.6441 7.74664C21.6495 7.88607 21.6822 8.02308 21.7405 8.14985C21.7988 8.27663 21.8815 8.39068 21.9839 8.48549C22.0862 8.58031 22.2063 8.65403 22.3371 8.70245C22.468 8.75087 22.6071 8.77305 22.7465 8.76771C22.886 8.76237 23.023 8.72962 23.1498 8.67132C23.2765 8.61303 23.3906 8.53034 23.4854 8.42797C23.5802 8.32561 23.6539 8.20557 23.7024 8.07471C23.837 7.71045 24.0689 7.39006 24.3728 7.14832C24.6768 6.90657 25.0411 6.75272 25.4263 6.70347C25.8115 6.65422 26.2029 6.71145 26.5578 6.86895C26.9128 7.02646 27.2178 7.2782 27.4398 7.59686C27.6618 7.91551 27.7922 8.28889 27.8169 8.67645C27.8416 9.06401 27.7597 9.45093 27.58 9.79519C27.4003 10.1395 27.1297 10.4279 26.7976 10.6292C26.4655 10.8305 26.0846 10.937 25.6962 10.937H2.32123C2.03944 10.937 1.76918 11.049 1.56993 11.2482C1.37067 11.4475 1.25873 11.7178 1.25873 11.9995C1.25873 12.2813 1.37067 12.5516 1.56993 12.7508C1.76918 12.9501 2.03944 13.062 2.32123 13.062H25.6962C26.8234 13.062 27.9044 12.6143 28.7014 11.8173C29.4985 11.0202 29.9462 9.93922 29.9462 8.81205C29.9462 7.68488 29.4985 6.60387 28.7014 5.80684C27.9044 5.00982 26.8234 4.56205 25.6962 4.56205Z" fill="white"/>
</svg>
