<svg width="30" height="18" viewBox="0 0 30 18" fill="none" xmlns="http://www.w3.org/2000/svg">
<path d="M30 7.8177L29.6425 6.5943L24.6964 8.049C24.4249 7.55295 23.9193 7.20505 23.3162 7.20505C23.106 7.20505 22.9081 7.25092 22.7246 7.32548L19.2102 2.94609C19.3125 2.73391 19.3851 2.50357 19.3851 2.2522C19.3851 1.37288 18.6702 0.657959 17.7909 0.657959C16.9116 0.657959 16.1976 1.37288 16.1976 2.2522C16.1976 2.70046 16.3878 3.10284 16.685 3.39244L12.319 14.1536C12.2378 14.1536 12.1709 14.188 12.0935 14.1994L7.45412 7.26813C7.62616 7.01485 7.75137 6.7262 7.75137 6.3955C7.75137 5.51714 7.03645 4.80222 6.15713 4.80222C5.27877 4.80222 4.56289 5.51714 4.56289 6.3955C4.56289 6.69466 4.66707 6.96037 4.81235 7.19931L0 13.1806L0.993055 13.9796L5.86084 7.93048C5.96024 7.95055 6.05199 7.9907 6.15713 7.9907C6.23264 7.9907 6.29859 7.95629 6.37314 7.94578L11.0163 14.8847C10.8481 15.1371 10.7258 15.4219 10.7258 15.7478C10.7258 16.6262 11.4407 17.3411 12.319 17.3411C13.1993 17.3411 13.9142 16.6262 13.9142 15.7478C13.9142 15.3301 13.7441 14.9593 13.4841 14.6754L17.8865 3.82732C18.0069 3.81872 18.1168 3.78909 18.2267 3.75755L21.8329 8.24876C21.7698 8.42271 21.723 8.60335 21.723 8.79738C21.723 9.67669 22.4379 10.3916 23.3153 10.3916C24.0006 10.3916 24.5731 9.95291 24.7996 9.34504L30 7.8177Z" fill="#525050"/>
</svg>
