<svg width="23" height="58" viewBox="0 0 23 58" fill="none" xmlns="http://www.w3.org/2000/svg">
<path d="M11.2212 29.2587C12.6017 29.2588 13.721 30.3782 13.7212 31.7587V39.411C16.6145 40.4323 18.6869 43.1743 18.687 46.3983C18.687 50.4936 15.3444 53.8142 11.2212 53.8143C7.09786 53.8143 3.75537 50.4937 3.75537 46.3983C3.75553 43.1741 5.8275 40.4311 8.72119 39.41V31.7587C8.7214 30.3781 9.84061 29.2587 11.2212 29.2587Z" fill="url(#paint0_linear_55_60)"/>
<mask id="path-2-inside-1_55_60" fill="white">
<path d="M11.5049 0C14.2662 0 16.5047 2.23872 16.5049 5V36.4639C20.0375 38.3533 22.4414 42.0771 22.4414 46.3633C22.4414 52.5602 17.4176 57.584 11.2207 57.584C5.0239 57.5838 0 52.5601 0 46.3633C5.06208e-05 42.0769 2.40471 38.3533 5.9375 36.4639V5C5.93766 2.23872 8.17618 0 10.9375 0H11.5049Z"/>
</mask>
<path d="M16.5049 5H17.5049V4.99994L16.5049 5ZM16.5049 36.4639H15.5049V37.0631L16.0332 37.3457L16.5049 36.4639ZM22.4414 46.3633H23.4414V46.3633L22.4414 46.3633ZM11.2207 57.584L11.2207 58.584H11.2207V57.584ZM0 46.3633L-1 46.3633V46.3633H0ZM5.9375 36.4639L6.40911 37.3457L6.9375 37.0631V36.4639H5.9375ZM5.9375 5L4.9375 4.99994V5H5.9375ZM11.5049 0V1C13.7139 1 15.5048 2.79095 15.5049 5.00006L16.5049 5L17.5049 4.99994C17.5047 1.68648 14.8185 -1 11.5049 -1V0ZM16.5049 5H15.5049V36.4639H16.5049H17.5049V5H16.5049ZM16.5049 36.4639L16.0332 37.3457C19.2537 39.0682 21.4414 42.4607 21.4414 46.3633L22.4414 46.3633L23.4414 46.3633C23.4414 41.6935 20.8213 37.6385 16.9765 35.5821L16.5049 36.4639ZM22.4414 46.3633H21.4414C21.4414 52.0079 16.8654 56.584 11.2207 56.584V57.584V58.584C17.9699 58.584 23.4414 53.1125 23.4414 46.3633H22.4414ZM11.2207 57.584L11.2207 56.584C5.57617 56.5838 1 52.0078 1 46.3633H0H-1C-1 53.1124 4.47164 58.5838 11.2207 58.584L11.2207 57.584ZM0 46.3633L1 46.3633C1.00005 42.4607 3.18834 39.0682 6.40911 37.3457L5.9375 36.4639L5.46589 35.5821C1.62109 37.6384 -0.999945 41.6932 -1 46.3633L0 46.3633ZM5.9375 36.4639H6.9375V5H5.9375H4.9375V36.4639H5.9375ZM5.9375 5L6.9375 5.00006C6.93763 2.79095 8.72852 1 10.9375 1V0V-1C7.62383 -1 4.9377 1.68648 4.9375 4.99994L5.9375 5ZM10.9375 0V1H11.5049V0V-1H10.9375V0Z" fill="#525050" mask="url(#path-2-inside-1_55_60)"/>
<defs>
<linearGradient id="paint0_linear_55_60" x1="11.2212" y1="18.785" x2="11.2212" y2="53.8143" gradientUnits="userSpaceOnUse">
<stop offset="0.495192" stop-color="#D0E6FF"/>
<stop offset="1" stop-color="#2F8EF4"/>
</linearGradient>
</defs>
</svg>
